<?xml version="1.0" standalone="no"?>
<!DOCTYPE svg PUBLIC "-//W3C//DTD SVG 20010904//EN"
 "http://www.w3.org/TR/2001/REC-SVG-20010904/DTD/svg10.dtd">
<svg version="1.0" xmlns="http://www.w3.org/2000/svg"
 width="700.000000pt" height="700.000000pt" viewBox="0 0 700.000000 700.000000"
 preserveAspectRatio="xMidYMid meet">
<metadata>
Created by potrace 1.14, written by Peter Selinger 2001-2017
</metadata>
<g transform="translate(0.000000,700.000000) scale(0.100000,-0.100000)"
fill="#000000" stroke="none">
<path d="M1711 6554 c-202 -34 -314 -165 -348 -404 -12 -88 -5 -373 11 -421 3
-8 7 -32 10 -54 14 -101 62 -317 97 -438 l20 -69 -26 -76 c-15 -42 -40 -124
-55 -182 -15 -58 -32 -104 -36 -104 -5 1 -38 5 -74 9 -36 3 -76 8 -90 10 -14
2 -50 6 -80 10 -30 3 -67 8 -83 11 -130 22 -188 6 -217 -59 -18 -40 -13 -94
13 -125 18 -23 65 -42 114 -47 27 -3 62 -7 78 -10 17 -2 52 -7 80 -11 27 -3
59 -7 70 -9 102 -13 151 -19 157 -17 3 1 6 -49 5 -111 0 -61 3 -149 7 -193 l7
-82 -58 -7 c-31 -4 -64 -8 -73 -10 -24 -5 -284 -38 -298 -38 -7 0 -28 -14 -48
-31 -65 -57 -54 -157 21 -193 31 -15 47 -15 138 -5 56 7 111 14 122 16 11 2
63 9 115 16 52 6 104 13 116 15 16 2 23 -7 38 -49 48 -136 150 -302 253 -410
l47 -48 -24 -20 c-133 -106 -353 -355 -473 -532 -268 -399 -401 -800 -392
-1181 4 -160 8 -187 42 -305 112 -387 421 -649 938 -794 133 -38 333 -78 450
-91 28 -3 61 -8 75 -10 14 -2 54 -6 90 -10 36 -3 83 -8 105 -10 271 -27 989
-27 1295 0 151 13 258 29 282 41 31 16 58 61 58 96 0 22 7 25 103 42 56 9 120
23 141 29 31 9 40 9 44 -1 8 -25 51 -63 79 -71 33 -9 127 11 181 38 59 30 76
55 76 111 l0 48 50 24 c28 12 77 38 108 56 l57 34 22 -21 c13 -12 31 -22 41
-22 10 -1 24 -2 31 -3 66 -10 230 159 318 329 82 158 115 307 118 535 l1 85
43 24 c109 62 202 168 267 306 38 81 83 211 94 275 4 19 8 40 10 45 1 6 6 33
10 60 4 28 10 61 12 75 18 109 23 370 14 870 -2 148 3 276 15 340 1 8 6 35 10
60 11 74 51 203 81 266 59 120 169 199 260 187 128 -16 204 -112 164 -209 -37
-87 44 -180 139 -159 92 20 145 200 97 333 -48 134 -187 244 -341 270 -299 50
-554 -196 -630 -611 -34 -188 -38 -241 -35 -472 6 -376 5 -690 -2 -755 -33
-306 -106 -512 -218 -623 l-29 -28 -11 43 c-90 349 -269 686 -525 988 -83 98
-199 216 -269 276 l-48 41 37 39 c54 57 139 172 171 229 15 28 31 57 36 65 5
8 24 51 42 95 25 60 38 80 52 78 42 -4 132 -15 294 -38 153 -22 185 -19 225
21 14 14 25 26 26 27 26 105 -24 167 -144 181 -25 3 -61 8 -79 11 -33 4 -186
25 -223 30 -11 1 -30 3 -43 4 -22 1 -22 3 -16 69 3 37 6 124 6 193 l1 126 56
7 c387 42 428 51 456 106 29 55 16 119 -32 154 -28 21 -77 25 -170 13 -35 -4
-82 -10 -105 -13 -24 -3 -53 -7 -64 -9 -12 -3 -50 -7 -85 -10 -35 -4 -69 -8
-76 -10 -16 -5 -21 3 -28 46 -9 54 -24 106 -62 216 l-34 102 20 68 c26 86 69
265 76 318 4 22 11 57 16 78 29 110 43 420 25 535 -33 206 -134 333 -301 377
-205 54 -481 -19 -799 -213 l-99 -60 -45 19 c-60 26 -200 66 -294 84 -208 40
-463 36 -655 -10 -13 -3 -31 -7 -40 -9 -46 -10 -138 -39 -193 -61 l-60 -24
-88 56 c-205 129 -446 224 -592 232 -19 1 -49 3 -66 4 -17 2 -64 -3 -103 -9z
m484 -2314 c10 -11 16 -20 13 -20 -3 0 -13 9 -23 20 -10 11 -16 20 -13 20 3 0
13 -9 23 -20z m22 -52 c-3 -8 -6 -5 -6 6 -1 11 2 17 5 13 3 -3 4 -12 1 -19z
m10 -40 c-3 -8 -6 -5 -6 6 -1 11 2 17 5 13 3 -3 4 -12 1 -19z m-17 -52 c0 -2
-8 -10 -17 -17 -16 -13 -17 -12 -4 4 13 16 21 21 21 13z"/>
</g>
</svg>
