<?xml version="1.0" standalone="no"?>
<!DOCTYPE svg PUBLIC "-//W3C//DTD SVG 20010904//EN"
 "http://www.w3.org/TR/2001/REC-SVG-20010904/DTD/svg10.dtd">
<svg version="1.0" xmlns="http://www.w3.org/2000/svg"
 width="700.000000pt" height="700.000000pt" viewBox="0 0 700.000000 700.000000"
 preserveAspectRatio="xMidYMid meet">
<metadata>
Created by potrace 1.14, written by Peter Selinger 2001-2017
</metadata>
<g transform="translate(0.000000,700.000000) scale(0.100000,-0.100000)"
fill="#000000" stroke="none">
<path d="M3507 6994 c-1 -1 -74 -5 -162 -8 -88 -4 -171 -8 -185 -10 -14 -2
-56 -7 -95 -11 -38 -4 -72 -8 -75 -10 -3 -1 -25 -6 -50 -9 -304 -41 -641 -148
-990 -314 -81 -38 -271 -146 -364 -207 -77 -50 -278 -196 -302 -219 -6 -6 -38
-33 -70 -60 -85 -72 -273 -259 -346 -345 -35 -40 -71 -83 -82 -95 -39 -44
-135 -175 -193 -261 -278 -418 -462 -877 -543 -1357 -22 -133 -24 -151 -37
-288 -15 -163 -8 -589 12 -711 2 -13 6 -46 10 -74 9 -76 16 -116 25 -160 5
-22 11 -53 14 -70 77 -424 296 -926 576 -1320 150 -211 382 -466 555 -610 33
-28 66 -56 74 -63 52 -49 327 -244 406 -288 11 -6 52 -29 90 -51 314 -180 709
-327 1042 -388 15 -2 39 -7 53 -10 182 -36 362 -50 650 -49 218 1 380 12 530
39 14 2 54 9 90 15 36 6 126 27 200 45 761 191 1432 628 1909 1243 81 105 221
306 221 318 0 4 6 15 14 23 7 9 24 36 37 61 13 25 27 47 30 50 13 11 162 324
169 355 1 6 7 19 13 30 6 11 12 22 13 25 0 3 3 12 7 20 24 61 67 189 67 198 0
7 4 12 8 12 4 0 8 8 8 18 2 28 12 69 22 89 6 10 10 21 11 26 1 4 2 9 2 12 1 3
3 10 4 15 1 6 3 11 4 13 2 1 5 20 7 42 3 22 8 42 12 45 4 3 8 18 9 34 1 16 5
37 9 45 6 16 14 63 17 109 0 12 4 22 7 22 3 0 6 10 7 23 2 57 8 87 18 87 5 0
4 4 -4 9 -7 5 -9 11 -4 14 5 3 8 20 7 36 -1 17 1 31 6 31 4 0 6 14 4 31 -2 17
-1 36 2 41 4 5 6 40 7 76 0 37 5 73 11 81 8 11 8 13 -1 8 -15 -9 -14 35 2 45
6 5 5 8 -4 8 -11 0 -11 3 -1 15 8 9 8 15 2 15 -7 0 -8 10 -2 29 4 15 4 35 -1
42 -13 20 -11 31 4 23 9 -6 9 -4 -1 8 -10 13 -10 17 0 21 8 4 9 8 3 14 -12 9
-13 43 -2 60 4 6 3 14 -2 17 -5 3 -8 29 -7 56 2 28 0 50 -3 50 -3 0 -7 11 -7
25 -1 14 2 22 7 19 5 -3 9 0 9 5 0 6 -4 11 -9 11 -5 0 -8 18 -7 39 1 22 -1 38
-6 35 -4 -3 -8 0 -8 5 0 6 6 11 13 11 8 0 8 3 -2 9 -8 5 -11 16 -8 25 4 9 1
16 -5 16 -6 0 -5 6 3 17 8 10 9 14 2 10 -8 -5 -12 2 -13 20 -1 16 -2 47 -3 70
-1 22 -5 39 -10 36 -4 -2 -7 8 -7 24 0 45 -3 63 -12 63 -4 0 -8 5 -8 11 0 5 6
7 13 3 8 -6 8 -3 -1 9 -8 9 -10 22 -6 28 4 8 3 9 -5 5 -8 -5 -10 0 -7 18 3 14
1 26 -4 26 -5 0 -9 8 -9 18 -2 54 -6 70 -15 65 -5 -4 -7 1 -3 9 3 9 3 19 -1
23 -4 4 -7 10 -8 13 0 4 -4 14 -8 23 -4 9 -6 20 -4 25 1 5 -3 19 -10 32 -9 15
-9 22 -2 22 7 0 5 7 -4 15 -8 8 -13 24 -11 35 2 11 0 18 -4 15 -5 -3 -12 2
-15 11 -3 8 -2 13 2 10 5 -3 9 1 9 9 0 8 -4 12 -8 10 -9 -6 -30 51 -22 59 4 3
2 6 -4 6 -6 0 -13 9 -16 20 -3 13 -1 18 6 13 7 -3 4 3 -6 14 -9 11 -14 23 -10
26 3 4 1 7 -5 7 -7 0 -12 7 -12 16 0 9 5 12 12 8 7 -4 8 -3 4 5 -4 6 -12 8
-18 5 -7 -5 -9 0 -6 14 4 14 2 20 -5 15 -7 -4 -8 0 -4 11 4 10 3 15 -3 11 -9
-6 -14 10 -13 42 1 7 -3 10 -8 7 -8 -5 -14 18 -10 39 1 5 -3 6 -9 2 -9 -6 -14
10 -13 42 1 7 -3 11 -7 8 -5 -3 -11 -1 -15 5 -3 5 -1 10 4 10 6 0 2 9 -9 20
-12 12 -18 25 -15 30 4 6 1 10 -5 10 -7 0 -9 7 -6 16 4 10 2 13 -6 8 -8 -5 -9
-2 -5 10 5 11 3 15 -5 10 -8 -5 -9 -2 -5 10 4 9 3 14 -2 11 -9 -5 -27 32 -23
48 1 5 -2 6 -8 2 -5 -3 -11 1 -11 9 -3 30 -4 34 -13 43 -5 5 -6 2 -2 -7 4 -8
0 -6 -9 5 -9 11 -14 28 -11 38 2 9 1 15 -4 12 -11 -7 -33 22 -25 35 3 5 1 10
-5 10 -6 0 -8 5 -5 10 4 6 3 9 -2 8 -4 -2 -10 2 -12 7 -2 6 -10 15 -17 20 -7
6 -14 17 -16 25 -2 8 -10 21 -18 28 -11 10 -11 12 -1 6 9 -5 12 -3 7 4 -4 7
-13 12 -21 12 -8 0 -12 8 -10 20 2 11 -1 19 -8 17 -7 -1 -11 4 -9 11 1 6 -4
12 -12 12 -9 0 -13 7 -11 19 3 14 -1 18 -11 14 -10 -3 -12 0 -8 10 3 8 0 18
-7 23 -8 4 -10 3 -5 -4 4 -7 5 -12 3 -12 -12 0 -66 94 -60 103 3 6 1 7 -5 3
-15 -9 -73 54 -67 72 3 8 0 10 -7 6 -7 -5 -9 -2 -5 9 4 11 2 14 -8 11 -15 -6
-39 29 -27 41 4 3 2 5 -4 3 -16 -4 -76 60 -68 74 4 7 3 8 -4 4 -7 -4 -12 -2
-12 4 0 6 -5 8 -12 4 -8 -5 -9 -2 -5 9 3 9 1 19 -5 23 -7 4 -8 3 -4 -4 4 -7 2
-12 -3 -12 -6 0 -11 7 -11 15 0 8 -4 15 -10 15 -5 0 -10 8 -10 18 0 14 -2 15
-10 2 -8 -13 -10 -12 -10 3 0 11 -4 15 -12 11 -7 -5 -9 -2 -5 8 7 20 -11 38
-31 30 -11 -4 -14 -1 -9 11 3 9 1 19 -5 23 -7 5 -8 2 -4 -7 4 -8 1 -6 -7 3 -8
10 -18 14 -22 10 -5 -4 -5 1 -2 10 3 10 1 20 -5 24 -7 4 -8 3 -4 -4 11 -18 -3
-14 -26 8 -12 11 -18 20 -13 20 4 0 0 9 -10 20 -10 11 -22 17 -27 14 -13 -8
-69 46 -61 59 3 6 1 7 -5 3 -7 -4 -12 -2 -12 4 0 6 -4 8 -10 5 -5 -3 -10 -2
-10 4 0 5 -9 13 -20 16 -11 3 -20 11 -20 16 0 6 5 7 12 3 7 -4 8 -3 4 4 -4 6
-13 9 -20 6 -8 -3 -25 6 -39 20 -15 14 -31 26 -36 26 -5 0 -13 5 -17 12 -5 7
-3 8 6 3 9 -5 11 -4 6 4 -4 6 -12 9 -17 5 -6 -3 -22 7 -36 23 -14 15 -22 21
-17 13 7 -14 -33 14 -47 33 -3 5 -10 9 -15 10 -5 1 -8 6 -6 10 1 5 -2 6 -7 3
-5 -4 -16 0 -24 8 -8 8 -17 12 -21 9 -3 -4 -6 -1 -6 5 0 7 -4 11 -9 10 -5 -2
-17 6 -26 17 -9 11 -14 13 -10 5 4 -8 -3 -4 -14 9 -12 13 -21 20 -21 17 0 -8
-113 55 -121 67 -3 5 -9 8 -13 7 -10 -2 -120 54 -124 63 -2 4 -8 7 -13 7 -4 0
-33 11 -64 25 -30 14 -80 36 -110 50 -31 14 -61 25 -69 25 -7 0 -16 3 -20 8
-4 4 -11 7 -14 8 -4 0 -18 5 -32 11 -33 13 -151 54 -170 58 -8 2 -46 13 -85
25 -38 11 -90 25 -115 31 -25 6 -53 13 -62 15 -10 2 -28 6 -40 9 -13 3 -34 8
-48 10 -14 2 -35 6 -46 9 -19 4 -49 9 -124 22 -38 6 -194 22 -290 30 -72 5
-220 11 -223 8z m243 -578 c52 -4 102 -9 110 -11 8 -2 35 -7 60 -10 25 -3 68
-10 95 -15 28 -5 61 -12 75 -14 86 -16 139 -30 280 -73 462 -141 882 -399
1220 -749 444 -461 718 -1028 805 -1667 20 -147 26 -472 12 -633 -51 -590
-285 -1159 -666 -1618 -82 -99 -251 -271 -346 -352 -395 -336 -928 -581 -1425
-654 -41 -6 -86 -13 -99 -15 -118 -19 -478 -26 -631 -13 -487 45 -968 213
-1360 477 -65 44 -127 87 -137 95 -10 8 -47 38 -83 67 -618 503 -1002 1236
-1070 2039 -7 90 -5 460 3 525 3 17 8 57 12 90 9 76 12 92 20 135 91 499 291
936 610 1331 110 137 219 248 385 394 168 147 430 312 660 414 52 24 104 47
115 52 52 24 231 83 325 109 136 36 235 56 365 75 22 4 51 8 65 10 14 3 70 8
125 11 55 4 101 7 102 8 5 4 284 -2 373 -8z m2060 -291 c11 -13 10 -14 -4 -9
-9 3 -16 10 -16 15 0 13 6 11 20 -6z"/>
<path d="M3502 5933 c-11 -30 -247 -653 -567 -1498 -109 -286 -215 -567 -236
-625 -22 -58 -43 -114 -48 -125 -5 -11 -36 -92 -69 -180 -33 -88 -113 -299
-177 -470 -65 -170 -153 -404 -196 -518 -44 -115 -90 -236 -103 -270 -82 -210
-158 -419 -154 -422 2 -2 103 57 224 132 292 180 581 359 734 453 69 42 229
141 355 220 l230 142 39 -22 c36 -21 1072 -669 1191 -745 52 -33 301 -187 322
-199 10 -6 11 -1 2 21 -17 44 -119 320 -374 1008 -130 352 -289 780 -352 950
-63 171 -243 657 -400 1080 -410 1108 -405 1095 -408 1095 -2 0 -8 -12 -13
-27z"/>
<path d="M5750 6176 c0 -2 8 -10 18 -17 15 -13 16 -12 3 4 -13 16 -21 21 -21
13z"/>
<path d="M6215 5700 c3 -5 8 -10 11 -10 2 0 4 5 4 10 0 6 -5 10 -11 10 -5 0
-7 -4 -4 -10z"/>
</g>
</svg>
